<svg xmlns="http://www.w3.org/2000/svg" width="198.626" height="92.629"><g data-name="Сгруппировать 1734" fill-rule="evenodd"><path data-name="Контур 26014" d="M114.594 72.064l26.016-20.587 2.749 11.3a58.293 58.293 0 0018.782-3.272c9.963-3.683 14.637-10.529 16.29-13.881s1.179-4.722 1.179-4.722a26.513 26.513 0 011.511 16.337c-2.173 8.688-6.469 14.638-15.157 18.6-6.716 3.066-14.9 4.355-18.265 4.782l2.92 12.006z" fill="#0d0f67"/><path data-name="Контур 26016" d="M151.845 50.882c-6.264-7.881-14.645-21.464-16.605-31.461-1.117-5.693-.006-9.071.8-10.628 2.838.939 5.96 2.057 9.781 3.467 0 0-3-3.9-6.422-7.6a30.063 30.063 0 00-4.958-4.659s-7.011.48-11.9 1.071a76.407 76.407 0 00-10.1 2.077c3.367.62 6.215 1.165 8.763 1.7-3.765 9.07.826 18.716 6.652 26.231 4.932 6.357 16.921 17.535 23.989 19.802z" fill="#b5037d"/><path data-name="Контур 26017" d="M0 26.921h17.014A11.674 11.674 0 0128.653 38.56a11.674 11.674 0 01-11.639 11.639H5.256v15.7H0V26.921zm90.037-.613a20.108 20.108 0 0110.8 3.129l-2.919 2.919a15.08 15.08 0 00-7.874-2.365c-8 0-14.312 4.388-14.5 16.527s6.486 16.385 14.489 16.385a15.46 15.46 0 008.6-2.794l2.8 3.1a20.106 20.106 0 01-11.4 3.52c-11.162 0-20.209-7.159-20.209-20.208s9.048-20.209 20.209-20.209zM62.981 65.9l.85-3.852H45.485v-35.13h-5.254v38.978zM5.256 30.614V46.66h9.575a8.048 8.048 0 008.023-8.023 8.048 8.048 0 00-8.023-8.024z" fill="#0d0c5e"/><path data-name="Контур 26019" d="M143.91 17.235a82.6 82.6 0 0113.76 4.068 57.709 57.709 0 0115.3 8.881 91.949 91.949 0 0114.987 15.884l-3.024 3.01s6.752 5.524 9.774 8.452a20.505 20.505 0 013.919 4.721s-1.748-8.31-3.211-12.8-2.942-7.873-2.942-7.873l-1.388 1.379c-1.93-2.946-7.229-10.544-13.479-15.371-7.882-6.088-20.052-13.3-33.696-10.351z" fill="#24268c"/></g></svg>