<svg xmlns="http://www.w3.org/2000/svg" width="199.577" height="92.602"><g data-name="Сгруппировать 2045" fill-rule="evenodd"><path data-name="Контур 26014" d="M115.568 72.042l26.009-20.581 2.748 11.3a58.275 58.275 0 0018.777-3.271c9.96-3.682 14.633-10.526 16.285-13.878s1.179-4.721 1.179-4.721a26.506 26.506 0 011.511 16.333c-2.172 8.685-6.467 14.634-15.152 18.6-6.714 3.065-14.892 4.353-18.26 4.78l2.919 12z" fill="#dfe3f5"/><path data-name="Контур 26017" d="M1.007 26.914h17.009A11.67 11.67 0 0129.652 38.55a11.67 11.67 0 01-11.636 11.636H6.262v15.7H1.007V26.914zm90.011-.613a20.1 20.1 0 0110.8 3.128L98.9 32.347a15.075 15.075 0 00-7.872-2.364c-8 0-14.308 4.387-14.5 16.522s6.484 16.38 14.485 16.38a15.456 15.456 0 008.6-2.793l2.8 3.1a20.1 20.1 0 01-11.394 3.519c-11.159 0-20.2-7.157-20.2-20.2s9.045-20.2 20.2-20.2zM63.97 65.881l.849-3.847h-18.34v-35.12h-5.256v38.967zM6.261 30.605v16.042h9.571a8.045 8.045 0 008.021-8.021 8.045 8.045 0 00-8.021-8.021z" fill="#dfe3f5"/><path data-name="Контур 26019" d="M144.876 17.23a82.573 82.573 0 0113.756 4.067 57.69 57.69 0 0115.3 8.879 91.926 91.926 0 0114.983 15.879l-3.025 3.007s6.75 5.522 9.771 8.45a20.5 20.5 0 013.918 4.72s-1.747-8.308-3.21-12.792-2.938-7.872-2.938-7.872l-1.388 1.379c-1.929-2.945-7.227-10.541-13.475-15.367-7.885-6.089-20.052-13.299-33.692-10.35z" fill="#24268c"/><path data-name="Контур 26020" d="M151.804 50.868c-6.263-7.879-14.641-21.458-16.6-31.452-1.117-5.692-.006-9.068.8-10.625 2.837.939 5.958 2.056 9.778 3.466 0 0-3-3.894-6.421-7.6A30.054 30.054 0 00134.405 0s-7.009.48-11.895 1.07a76.383 76.383 0 00-10.1 2.076c3.366.619 6.213 1.165 8.761 1.7-3.764 9.067.826 18.711 6.65 26.223 4.929 6.357 16.915 17.532 23.983 19.799z" fill="#b5037d"/><path data-name="Контур 26021" d="M0 26.914h17.009A11.67 11.67 0 0128.645 38.55a11.67 11.67 0 01-11.636 11.636H5.255v15.7H0V26.914zm90.011-.613a20.1 20.1 0 0110.8 3.128l-2.918 2.918a15.075 15.075 0 00-7.872-2.364c-8 0-14.308 4.387-14.5 16.522s6.484 16.38 14.485 16.38a15.456 15.456 0 008.6-2.793l2.8 3.1a20.1 20.1 0 01-11.394 3.519c-11.159 0-20.2-7.157-20.2-20.2s9.045-20.2 20.2-20.2zm-27.048 39.58l.849-3.847h-18.34v-35.12h-5.256v38.967zM5.254 30.605v16.042h9.571a8.045 8.045 0 008.021-8.021 8.045 8.045 0 00-8.021-8.021z" fill="#dfe3f5"/></g></svg>