<svg xmlns="http://www.w3.org/2000/svg" width="36.028" height="37.15"><g data-name="Сгруппировать 1634"><g data-name="Сгруппировать 1633"><path data-name="Контур 26007" d="M21.856 4.797a1.623 1.623 0 111.623-1.623 1.624 1.624 0 01-1.623 1.623z" fill="#b5037d" opacity=".05"/></g></g><path data-name="Контур 26008" d="M32.787 20.583a1.623 1.623 0 111.618 1.777 1.624 1.624 0 01-1.617-1.777z" fill="#b5037d" opacity=".8"/><path data-name="Контур 26009" d="M32.351 15.321a1.623 1.623 0 111.989 1.149 1.644 1.644 0 01-.421.055 1.623 1.623 0 01-1.568-1.204z" fill="#b5037d" opacity=".6"/><path data-name="Контур 26010" d="M30.096 10.555a1.622 1.622 0 111.321.678 1.624 1.624 0 01-1.321-.678z" fill="#b5037d" opacity=".4"/><path data-name="Контур 26011" d="M25.873 4.619a1.623 1.623 0 111.344 2.531 1.623 1.623 0 01-1.344-2.531z" fill="#b5037d" opacity=".2"/><g data-name="Сгруппировать 1635"><path data-name="Контур 26012" d="M32.815 27.998a1.623 1.623 0 111.623-1.623 1.625 1.625 0 01-1.623 1.623z" fill="#b5037d"/></g><path data-name="Контур 26013" d="M30.696 29.473a1.623 1.623 0 00-2.177.1A14.814 14.814 0 1111.372 5.868l.522 2.139a.649.649 0 001.093.3l4.966-5.027a.649.649 0 00-.262-1.074L10.966.033a.649.649 0 00-.831.772l.449 1.842A18.061 18.061 0 1030.81 31.878a1.624 1.624 0 00-.114-2.405z" fill="#b5037d"/></svg>