<svg data-name="Сгруппировать 2310" xmlns="http://www.w3.org/2000/svg" width="46.861" height="46.861"><g data-name="Сгруппировать 1159" fill="#b5037d"><path data-name="Контур 25903" d="M8.672 27.108a2.745 2.745 0 103.985 3.278h7.113a2.746 2.746 0 110 5.492H8.786a4.577 4.577 0 100 9.153h9.153a.915.915 0 100-1.831H8.786a2.746 2.746 0 010-5.492H19.77a4.577 4.577 0 100-9.153h-7.114a2.76 2.76 0 00-1.192-1.448l6.991-11.47a10.068 10.068 0 10-16.774 0zm1.4 3.278a.915.915 0 11.915-.915.916.916 0 01-.919.916zm0-28.556a8.238 8.238 0 016.854 12.808l-.021.032-6.837 11.212-6.854-11.244a8.238 8.238 0 016.854-12.807z"/><path data-name="Контур 25904" d="M10.068 14.645a4.576 4.576 0 10-4.576-4.577 4.581 4.581 0 004.576 4.577zm0-7.322a2.746 2.746 0 11-2.746 2.746 2.749 2.749 0 012.746-2.746z"/><path data-name="Контур 25905" d="M36.793 15.193a10.069 10.069 0 00-8.382 15.647l6.965 10.925a2.76 2.76 0 00-1.171 1.436h-8.029a.915.915 0 000 1.831h8.029a2.745 2.745 0 104.006-3.266l6.965-10.925a10.069 10.069 0 00-8.383-15.648zm0 29.837a.915.915 0 11.915-.915.916.916 0 01-.915.915zm6.854-15.2l-6.854 10.751-6.854-10.751a8.237 8.237 0 1113.708 0z"/><path data-name="Контур 25906" d="M36.793 20.685a4.576 4.576 0 104.576 4.576 4.582 4.582 0 00-4.576-4.576zm0 7.322a2.746 2.746 0 112.746-2.746 2.749 2.749 0 01-2.746 2.746z"/><circle data-name="Эллипс 19" cx="1.124" cy="1.124" r="1.124" transform="translate(21.123 42.971)"/></g></svg>