<svg data-name="Сгруппировать 2311" xmlns="http://www.w3.org/2000/svg" width="38.272" height="26.838"><g data-name="Сгруппировать 1163" fill="#b5037d"><path data-name="Контур 25911" d="M1.214 1.187a1.927 1.927 0 01.6-.4 1.906 1.906 0 00-.6.4"/><path data-name="Контур 25912" d="M1.882.766a1.9 1.9 0 01.287-.089 1.892 1.892 0 00-.287.089"/></g><g data-name="Сгруппировать 1164" fill="#b5037d"><path data-name="Контур 25917" d="M2.253 25.525a1.252 1.252 0 00.3.035h33.168a1.257 1.257 0 00.3-.035l-11.6-11.218-1.466 1.418a5.471 5.471 0 01-7.639 0l-1.465-1.418zm33.468 1.313H2.551a2.534 2.534 0 01-1.79-.736.639.639 0 010-.915L13.403 12.96a.637.637 0 01.886 0l1.909 1.846a4.2 4.2 0 005.867 0l1.909-1.846a.636.636 0 01.885 0l12.643 12.227a.64.64 0 010 .915 2.533 2.533 0 01-1.789.736z"/><path data-name="Контур 25918" d="M29.98 5.751a1.917 1.917 0 101.914 1.917 1.918 1.918 0 00-1.914-1.917m0 5.112a3.195 3.195 0 113.189-3.195 3.2 3.2 0 01-3.189 3.195"/><path data-name="Контур 25919" d="M2.253 1.313l13.95 13.492a4.2 4.2 0 005.867 0l5.382-5.206a3.181 3.181 0 014.545-4.4l4.022-3.89a1.258 1.258 0 00-.3-.035H2.552a1.255 1.255 0 00-.3.035m16.884 15.969a5.477 5.477 0 01-3.82-1.553L.764 1.651a.639.639 0 010-.915A2.534 2.534 0 012.554 0h33.167a2.532 2.532 0 011.789.736.64.64 0 010 .915l-5.079 4.912a.636.636 0 01-.946-.066 1.905 1.905 0 10-2.721 2.637.642.642 0 01.227.467.635.635 0 01-.195.482l-5.837 5.646a5.476 5.476 0 01-3.819 1.553"/><path data-name="Контур 25920" d="M24.877 5.112H13.395a.639.639 0 010-1.278h11.482a.639.639 0 010 1.278"/><path data-name="Контур 25921" d="M22.963 8.946h-7.654a.639.639 0 010-1.278h7.654a.639.639 0 010 1.278"/><path data-name="Контур 25923" d="M35.721 26.836H2.551A2.556 2.556 0 010 24.282V14.058a.638.638 0 111.276 0v10.224a1.278 1.278 0 001.276 1.278h33.169A1.278 1.278 0 0037 24.282V2.556a1.278 1.278 0 00-1.276-1.278H2.551a1.278 1.278 0 00-1.275 1.278v6.39a.638.638 0 11-1.276 0v-6.39A2.556 2.556 0 012.551 0h33.17a2.556 2.556 0 012.551 2.556v21.726a2.556 2.556 0 01-2.551 2.554"/></g></svg>