<svg xmlns="http://www.w3.org/2000/svg" width="36.201" height="36.82"><g data-name="Сгруппировать 2312"><g data-name="Сгруппировать 1169"><g data-name="Сгруппировать 1167" fill="#b5037d"><path data-name="Контур 25924" d="M6.924 6.108q.215-.108.44-.2-.225.093-.44.2z"/><path data-name="Контур 25925" d="M10.003 16.379a2.981 2.981 0 01-.856.323 2.978 2.978 0 00.856-.323z"/><path data-name="Контур 25927" d="M21.078 36.631q-.225.1-.456.189.23-.086.456-.189z"/></g></g><path data-name="Контур 25932" d="M.274 12.594c.291 1.5.5 2.743.649 3.9a24.67 24.67 0 001.506 5.856 23.528 23.528 0 002.207 4.255 23.82 23.82 0 001.869 2.476 74.127 74.127 0 012.385 2.888l.834 1.071a7.693 7.693 0 005.082 2.915 7.849 7.849 0 001.035.069 7.654 7.654 0 002.678-.484h.012l.036-.014.162-.064.064-.026q.109-.046.217-.094l.05-.023c.061-.028.122-.058.182-.087l.095-.047.148-.077.13-.072.116-.066a6.56 6.56 0 00.165-.1l.082-.051q.106-.067.209-.138l.039-.026c.082-.057.163-.114.242-.174l.011-.014a1.881 1.881 0 00.619-.808q.034-.085.059-.172a1.891 1.891 0 00-.246-1.59q-.027-.04-.056-.079l-4.135-5.504a3.662 3.662 0 00-2.249-1.407q-.09-.017-.182-.03a3.659 3.659 0 00-2.29.416 3.751 3.751 0 00-.445.287l-1.147.861a23.068 23.068 0 01-4.873-10.692l1.423-.3a3.7 3.7 0 002.863-2.91q.019-.1.033-.2a3.655 3.655 0 00.033-.538 3.726 3.726 0 00-.08-.724L8.384 4.338a2.586 2.586 0 00-.022-.094v-.013a1.867 1.867 0 00-.023-.08A1.891 1.891 0 006.257 2.86h-.015l-.054.01-.041.007c-.085.018-.169.038-.253.058l-.049.012q-.261.066-.516.149h-.013c-.11.036-.219.075-.327.116l-.042.017a6.833 6.833 0 00-.28.114l-.044.02a9.732 9.732 0 00-.275.127l-.036.018q-.141.07-.279.145l-.01.005a7.74 7.74 0 00-3.88 8.259zM12.9 26.426c.039-.016.079-.031.119-.045l.036-.012.1-.032.029-.008q.066-.018.134-.031h.022q.057-.011.115-.019h.036q.06-.007.12-.011h.336c.046 0 .093.008.139.015l.112.019.1.022a2.259 2.259 0 011.284.845l4.143 5.498a.48.48 0 01-.1.672q-.126.094-.254.181l-.008.006a6.233 6.233 0 01-.9.5 47.48 47.48 0 01-5.571-7.6zm-7.083-22l.14-.043L6 4.367l.112-.031.078-.02.079-.02.162-.037.049-.008h.049a.476.476 0 01.156.027.481.481 0 01.069.031.5.5 0 01.057.038l.01.007a.482.482 0 01.053.05.47.47 0 01.045.06v.007a.467.467 0 01.034.067v.007A.476.476 0 017 4.63l1.422 6.737q.012.057.021.114v.018c0 .033.009.065.013.1.006.055.009.11.011.165v.233c0 .025 0 .049-.006.073s-.007.061-.011.091c0 .015 0 .03-.007.045a2.27 2.27 0 01-.135.481 2.3 2.3 0 01-.243.446l-.021.029a2.284 2.284 0 01-.213.254l-.056.056-.053.05a1.853 1.853 0 01-.119.1l-.012.009a2.402 2.402 0 01-.115.083l-.019.013a2.324 2.324 0 01-.135.083l-.022.012-.047.025A46.637 46.637 0 015.117 4.69a6.242 6.242 0 01.701-.266zm-2.03 1.1a48.612 48.612 0 002.093 8.71l-1.3.273a.707.707 0 00-.554.792 24.487 24.487 0 005.736 12.566.707.707 0 00.959.1l1-.75a49.417 49.417 0 005.256 7.272 6.351 6.351 0 01-6.136-2.322l-.834-1.071a75.256 75.256 0 00-2.43-2.943 22.387 22.387 0 01-1.758-2.329 22.107 22.107 0 01-2.074-4 23.252 23.252 0 01-1.419-5.52 66.18 66.18 0 00-.663-3.984l-.131-.677A6.351 6.351 0 013.788 5.52z" fill="#b5037d"/><path data-name="Контур 25933" d="M31.783 0H16.512a4.423 4.423 0 00-4.418 4.418v14.623a2.267 2.267 0 001.381 2.106 2.321 2.321 0 00.927.2 2.273 2.273 0 001.556-.622l1.473-1.373a7.168 7.168 0 014.9-1.931h6.02a.707.707 0 100-1.414h-6.019a8.577 8.577 0 00-5.868 2.311l-1.473 1.373a.883.883 0 01-1.485-.646V4.418a3.007 3.007 0 013-3h15.271a3.007 3.007 0 013 3v8.58a3 3 0 01-1.073 2.3.707.707 0 00.91 1.083 4.412 4.412 0 001.578-3.384V4.418A4.423 4.423 0 0031.783 0z" fill="#b5037d"/><path data-name="Контур 25934" d="M18.57 10.753v2.377a1.259 1.259 0 00.9 1.2l.632.185a14.392 14.392 0 008.092.007l.658-.192a1.258 1.258 0 00.9-1.2v-2.377a4.339 4.339 0 00-2.41-3.883 3.249 3.249 0 10-6.015-.154 4.341 4.341 0 00-2.757 4.037zm5.8-7.02a1.834 1.834 0 11-1.835 1.835 1.837 1.837 0 011.832-1.835zm-4.383 7.02a2.926 2.926 0 012.159-2.819 3.24 3.24 0 004.338.1 2.925 2.925 0 011.859 2.72v2.255l-.541.158a12.98 12.98 0 01-7.3-.006l-.515-.151v-2.257z" fill="#b5037d"/><path data-name="Контур 25935" d="M30.805 17.101a.676.676 0 00.088.107.7.7 0 00.229.153.736.736 0 00.133.04.715.715 0 00.276 0 .713.713 0 00.132-.04.7.7 0 00.122-.065.716.716 0 00.107-.088.684.684 0 00.088-.107.672.672 0 00.065-.122.75.75 0 00.041-.132.712.712 0 00.013-.139.7.7 0 00-.013-.138.716.716 0 00-.041-.132.652.652 0 00-.065-.122.689.689 0 00-.2-.2.7.7 0 00-.122-.065.714.714 0 00-.132-.04.694.694 0 00-.276 0 .737.737 0 00-.133.04.722.722 0 00-.122.065.687.687 0 00-.2.2.694.694 0 00-.065.122.662.662 0 00-.04.132.7.7 0 00-.014.138.71.71 0 00.014.139.745.745 0 00.04.132.713.713 0 00.075.122z" fill="#b5037d"/></g></svg>