<svg xmlns="http://www.w3.org/2000/svg" xmlns:xlink="http://www.w3.org/1999/xlink" width="1673.077" height="343.498"><defs><linearGradient id="a" x1=".679" y1="1.272" x2=".116" y2=".097" gradientUnits="objectBoundingBox"><stop offset="0" stop-color="#a2c5e8"/><stop offset=".192" stop-color="#a8c8e8"/><stop offset=".454" stop-color="#b9d2eb"/><stop offset=".756" stop-color="#d6e2ef"/><stop offset="1" stop-color="#f3f2f3"/></linearGradient><linearGradient id="c" x1=".005" y1=".5" x2=".998" y2=".5" xlink:href="#a"/><linearGradient id="b" x1="-.633" y1=".465" x2="1.633" y2=".535" gradientUnits="objectBoundingBox"><stop offset="0" stop-color="#73c4e6"/><stop offset="1" stop-color="#2675b8"/></linearGradient><linearGradient id="d" x1=".238" y1=".457" x2=".763" y2=".543" xlink:href="#b"/><linearGradient id="e" x1="-.838" y1=".42" x2="1.834" y2=".579" xlink:href="#b"/><linearGradient id="f" x1=".008" y1="-.25" x2=".948" y2="1.058" xlink:href="#b"/><linearGradient id="g" x1="-.103" y1=".44" x2=".961" y2=".628" xlink:href="#b"/><linearGradient id="h" x1=".514" y1="1.404" x2=".47" y2="-1.412" xlink:href="#b"/><linearGradient id="i" x1="0" y1=".283" x2=".978" y2="1.089" xlink:href="#b"/><linearGradient id="j" x1=".053" y1=".367" x2="1.012" y2=".632" xlink:href="#b"/><linearGradient id="k" x1=".132" y1=".346" x2="1.057" y2=".513" xlink:href="#b"/><linearGradient id="l" x1="-.321" y1=".486" x2="1.247" y2=".544" xlink:href="#b"/><linearGradient id="m" x1=".839" y1="1.216" x2=".246" y2="-.068" xlink:href="#b"/><linearGradient id="n" x1=".406" y1="-.401" x2=".494" y2=".445" xlink:href="#b"/><linearGradient id="o" x1=".352" y1="-.923" x2=".491" y2=".413" xlink:href="#b"/><linearGradient id="p" x1=".625" y1="-.113" x2=".558" y2=".216" xlink:href="#b"/><linearGradient id="q" x1=".697" y1="-.468" x2=".592" y2=".052" xlink:href="#b"/><linearGradient id="r" x1=".414" y1="-.328" x2=".502" y2=".518" xlink:href="#b"/><linearGradient id="s" x1=".364" y1="-.808" x2=".503" y2=".528" xlink:href="#b"/></defs><g data-name="Сгруппировать 2361"><path data-name="Контур 27393" d="M291.349 341.775l-169.323-.4V207.506h15.152v-57.733h26.125V208.5h6.451v-25.878h18.061v25.548h25.481v49.105h16.772v-18.581l21.609-22.23v21.9h12.9v-63.043h26.772z" fill="#c8eef7" fill-rule="evenodd"/><path data-name="Контур 27395" d="M661.409 341.9l-169.689-.384v-132.1h21.286v-56.643h26.127v57.617h6.448V185h18.067v25.065h25.477v48.177h16.771v-18.23l21.61-21.811v21.484h12.9v-61.843h26.764v31.577h-5.765z" fill="#c8eef7" fill-rule="evenodd"/><path data-name="Контур 27398" d="M673.223 110.25a4.787 4.787 0 114.783-4.785 4.783 4.783 0 01-4.783 4.785z" fill="#eff3f6" fill-rule="evenodd"/><path data-name="Контур 27399" d="M735.448 89.866a4.786 4.786 0 114.79-4.785 4.783 4.783 0 01-4.79 4.785z" fill="#eff3f6" fill-rule="evenodd"/><path data-name="Контур 27400" d="M1267.676 341.357H1104.3v-3.107l163.376.366z" fill="#fff" fill-rule="evenodd"/><path data-name="Контур 27401" d="M1267.676 342.573L1104.3 342.2V207.072h15.152v-57.3h26.128v58.286h6.448v-25.683h18.06v25.356h25.483v48.737h16.762v-18.442l21.624-22.063v21.733h12.9v-62.567h26.767v31.943h-5.943z" fill="#c8eef7" fill-rule="evenodd"/><path data-name="Контур 27402" d="M1104.301 342.573l-169.324-.388v-135h15.154v-57.41h26.128v58.4h6.448v-25.733h18.06v25.4h25.483v48.831h16.773v-18.476l21.61-22.106v21.776h12.9v-62.689h26.771z" fill="#c8eef7" fill-rule="evenodd"/><path data-name="Контур 27411" d="M870.384 155.62a4.786 4.786 0 114.79-4.788 4.792 4.792 0 01-4.79 4.788z" fill="#eff3f6" fill-rule="evenodd"/><path data-name="Контур 27412" d="M806.083 129.337a3.877 3.877 0 113.881-3.878 3.877 3.877 0 01-3.881 3.878z" fill="#eff3f6" fill-rule="evenodd"/><path data-name="Контур 27413" d="M1384.872 342.985h-52.436V115.7c20.489-20.892 31.959-32.606 52.434-53.5z" fill="#e4ecfb" fill-rule="evenodd"/><path data-name="Прямоугольник 1083" fill="#e0f5fa" d="M1342.371 117.889h10.073v13.625h-10.073z"/><path data-name="Прямоугольник 1084" fill="#e0f5fa" d="M1364.881 117.889h10.073v13.625h-10.073z"/><path data-name="Контур 27414" d="M1352.442 154.903l-10.071.932V142.21l10.071-.932z" fill="#e0f5fa" fill-rule="evenodd"/><path data-name="Прямоугольник 1085" fill="#e0f5fa" d="M1364.881 141.278h10.073v13.626h-10.073z"/><path data-name="Контур 27415" d="M1352.442 179.221l-10.071.934v-13.623l10.071-.932z" fill="#e0f5fa" fill-rule="evenodd"/><path data-name="Прямоугольник 1086" fill="#e0f5fa" d="M1364.881 165.599h10.073v13.625h-10.073z"/><path data-name="Прямоугольник 1087" fill="#e0f5fa" d="M1342.371 189.922h10.073v13.626h-10.073z"/><path data-name="Контур 27416" d="M1374.952 204.48h-10.071v-14.558l10.071.932z" fill="#e0f5fa" fill-rule="evenodd"/><path data-name="Прямоугольник 1088" fill="#c2d6f3" d="M1385.051 42.652h63.094v294.722h-63.094z"/><path data-name="Прямоугольник 1089" fill="#c2d6f3" d="M1404.154 29.324h24.881v13.329h-24.881z"/><path data-name="Прямоугольник 1090" fill="#c2d6f3" d="M1415.666 0h1.884v29.324h-1.884z"/><path data-name="Прямоугольник 1091" fill="#e0f5fa" d="M1395.219 66.527h10.073v13.625h-10.073z"/><path data-name="Прямоугольник 1092" fill="#e0f5fa" d="M1425.072 68.102h10.072v13.625h-10.072z"/><path data-name="Прямоугольник 1093" fill="#e0f5fa" d="M1395.219 89.82h10.073v13.626h-10.073z"/><path data-name="Прямоугольник 1094" fill="#e0f5fa" d="M1424.116 90.436h10.073v13.626h-10.073z"/><path data-name="Прямоугольник 1095" fill="#e0f5fa" d="M1395.219 113.112h10.073v13.626h-10.073z"/><path data-name="Прямоугольник 1096" fill="#e0f5fa" d="M1424.116 113.73h10.073v13.625h-10.073z"/><path data-name="Прямоугольник 1097" fill="#e0f5fa" d="M1395.219 136.406h10.073v13.626h-10.073z"/><path data-name="Прямоугольник 1098" fill="#e0f5fa" d="M1424.116 137.021h10.073v13.626h-10.073z"/><path data-name="Прямоугольник 1099" fill="#e0f5fa" d="M1395.219 159.698h10.073v13.625h-10.073z"/><path data-name="Прямоугольник 1100" fill="#e0f5fa" d="M1424.116 160.314h10.073v13.626h-10.073z"/><path data-name="Прямоугольник 1101" fill="#e0f5fa" d="M1395.219 182.989h10.073v13.626h-10.073z"/><path data-name="Прямоугольник 1102" fill="#e0f5fa" d="M1424.116 183.606h10.073v13.626h-10.073z"/><path data-name="Прямоугольник 1103" fill="#e4ecfb" d="M1448.15 131.514h45.135v208.86h-45.135z"/><path data-name="Прямоугольник 1104" fill="#e0f5fa" d="M1456.004 160.592h10.074v13.625h-10.074z"/><path data-name="Прямоугольник 1105" fill="#e0f5fa" d="M1474.831 160.592h10.073v13.625h-10.073z"/><path data-name="Прямоугольник 1106" fill="#e0f5fa" d="M1456.004 182.56h10.074v13.626h-10.074z"/><path data-name="Прямоугольник 1107" fill="#e0f5fa" d="M1474.831 182.56h10.073v13.626h-10.073z"/><path data-name="Прямоугольник 1108" fill="#e0f5fa" d="M1456.004 204.528h10.074v13.626h-10.074z"/><path data-name="Прямоугольник 1109" fill="#e0f5fa" d="M1474.831 204.528h10.073v13.626h-10.073z"/><path data-name="Прямоугольник 1110" fill="#e0f5fa" d="M1456.004 226.496h10.074v13.625h-10.074z"/><path data-name="Прямоугольник 1111" fill="#e0f5fa" d="M1474.831 226.496h10.073v13.625h-10.073z"/><path data-name="Контур 27417" d="M1542.487 342.985h-49.2V116.407c27.164 0 49.2 22.588 49.2 50.452z" fill="#c2d6f3" fill-rule="evenodd"/><path data-name="Прямоугольник 1112" fill="#e0f5fa" d="M1501.594 175.698h10.066v13.625h-10.066z"/><path data-name="Прямоугольник 1113" fill="#e0f5fa" d="M1524.105 175.698h10.073v13.625h-10.073z"/><path data-name="Прямоугольник 1114" fill="#e0f5fa" d="M1501.594 200.019h10.066v13.626h-10.066z"/><path data-name="Прямоугольник 1115" fill="#e0f5fa" d="M1524.105 200.019h10.073v13.626h-10.073z"/><path data-name="Прямоугольник 1116" fill="#e0f5fa" d="M1501.594 224.34h10.066v13.626h-10.066z"/><path data-name="Прямоугольник 1117" fill="#e0f5fa" d="M1524.105 224.34h10.073v13.626h-10.073z"/><path data-name="Прямоугольник 1118" fill="#e0f5fa" d="M1501.594 248.663h10.066v13.625h-10.066z"/><path data-name="Прямоугольник 1119" fill="#e0f5fa" d="M1524.105 248.663h10.073v13.625h-10.073z"/><path data-name="Прямоугольник 1120" fill="#c2d6f3" d="M1273.204 158.447h59.239v184.538h-59.239z"/><path data-name="Прямоугольник 1121" fill="#e0f5fa" d="M1284.784 179.795h10.074v13.626h-10.074z"/><path data-name="Прямоугольник 1122" fill="#e0f5fa" d="M1307.296 179.795h10.073v13.626h-10.073z"/><path data-name="Прямоугольник 1123" fill="#e0f5fa" d="M1284.784 205.367h10.074v13.626h-10.074z"/><path data-name="Прямоугольник 1124" fill="#e0f5fa" d="M1307.296 205.367h10.073v13.626h-10.073z"/><path data-name="Прямоугольник 1125" fill="#e0f5fa" d="M1284.784 230.94h10.074v13.626h-10.074z"/><path data-name="Прямоугольник 1126" fill="#e0f5fa" d="M1307.296 230.94h10.073v13.626h-10.073z"/><path data-name="Прямоугольник 1127" fill="#e0f5fa" d="M1284.784 256.512h10.074v13.626h-10.074z"/><path data-name="Прямоугольник 1128" fill="#e0f5fa" d="M1307.296 256.512h10.073v13.626h-10.073z"/><g data-name="Сгруппировать 2363"><path data-name="Контур 27418" d="M1414.155 272.816h65.525l-32.776-28.016-32.748-28.013-32.762 28.013-32.774 28.016z" fill="#2d77ba" fill-rule="evenodd"/><path data-name="Прямоугольник 1129" fill="#2d77ba" d="M1362.014 272.816h104.266v70.169h-104.266z"/><path data-name="Прямоугольник 1130" fill="#c7eff3" d="M1408.033 248.937h6.468v7.522h-6.468z"/><path data-name="Прямоугольник 1131" fill="#c7eff3" d="M1416.622 248.937h6.469v7.522h-6.469z"/><path data-name="Прямоугольник 1132" fill="#c7eff3" d="M1408.033 258.186h6.468v7.522h-6.468z"/><path data-name="Прямоугольник 1133" fill="#c7eff3" d="M1416.622 258.186h6.469v7.522h-6.469z"/><path data-name="Прямоугольник 1134" fill="#c7eff3" d="M1403.267 294.38h26.839v48.464h-26.839z"/></g><path data-name="Контур 27419" d="M401.495 69.001a13.838 13.838 0 016.98 1.89 13.753 13.753 0 0115.889-8.99 21.921 21.921 0 0142.468-.24c.436-.031.867-.064 1.307-.064a18.265 18.265 0 019.18 2.474 16.492 16.492 0 0125.179 14.039H388.446a13.91 13.91 0 0113.049-9.109z" fill="#c8eef7" fill-rule="evenodd"/><path data-name="Контур 27421" d="M1544.112 80.179a15.872 15.872 0 018.007 2.167 15.78 15.78 0 0118.232-10.311 25.148 25.148 0 0148.72-.274c.5-.036 1-.076 1.5-.076a20.882 20.882 0 0110.53 2.84 18.915 18.915 0 0128.883 16.1h-130.851a15.983 15.983 0 0114.979-10.446z" fill="#c8eef7" fill-rule="evenodd"/><path data-name="Контур 27422" d="M894.754 52.712H780.699a16.478 16.478 0 0122.117-15.513 18.222 18.222 0 0118.508-3.578 11.547 11.547 0 0115.484-1.947 19.246 19.246 0 0134.676 6.8 13.9 13.9 0 0123.269 14.244z" fill="#c8eef7" fill-rule="evenodd"/><g data-name="Сгруппировать 2362" fill-rule="evenodd"><path data-name="Контур 27420" d="M1.072 23.582A4.447 4.447 0 01.8 18.134a4.313 4.313 0 015.225-1.284 4.381 4.381 0 011.106-4.3 2.692 2.692 0 014 .513 4.718 4.718 0 011.7-4.715A3.482 3.482 0 0117.517 9c.027-2.076.115-4.336 1.423-5.942s4.3-1.838 5.15.054a5.062 5.062 0 019.43.2 7.547 7.547 0 017.321-2.2 7.642 7.642 0 015.384 5.475c.136.535.319 1.2.854 1.295a1.592 1.592 0 00.752-.138 3.981 3.981 0 014.206 1.832 12.025 12.025 0 011.556 4.658c1.822-1.611 5.242-.187 5.413 2.256 1.179-.837 2.7-1.7 3.962-.994.543.309.916.863 1.435 1.208s1.376.357 1.626-.227a10.03 10.03 0 011.47 4.138 4.77 4.77 0 015.14-.387 4.919 4.919 0 012.4 4.624z" transform="translate(751.753 318.646)" fill="url(#a)"/><path data-name="Контур 27423" d="M792.668 287.189a8.624 8.624 0 00.738-7.842c-1.167-2.462-4.338-3.974-6.749-2.747a68.248 68.248 0 00-1.469-21.235c-.878-3.815-2.243-7.786-5.3-10.186-4.666-3.665-12.051-2.05-15.83 2.544s-4.364 11.261-2.771 17.022c-4.152-1.165-9.173-.969-12.08 2.259-3.3 3.663-2.471 9.364-1.436 14.208.883 4.109 2.012 8.611 5.44 10.991-4.152.48-9.144 1.618-10.423 5.652-.726 2.293.093 4.832 1.414 6.836 4.369 6.66 13.142 8.611 21.032 8.809h3.9c2.185.22 4.35-.687 6.318-1.517 2.045-.863 4.166-1.517 6.233-2.32 3.266-1.276 6.752-3 8.3-6.373 1.647-3.574.543-8.5-2.938-10.258a22.048 22.048 0 005.621-5.843z" fill="#d7e4f6"/><path data-name="Контур 27424" d="M771.118 338.365V281.96a1.822 1.822 0 00-3.643 0v56.405a1.822 1.822 0 003.643 0z" fill="#f7f4fc"/><path data-name="Контур 27425" d="M771.424 299.986a15.162 15.162 0 008.21-9.739 1.879 1.879 0 00-1.274-2.272 1.847 1.847 0 00-2.233 1.29c-.131.453-.281.892-.443 1.338-.155.412.169-.376-.014.026-.052.118-.1.234-.162.352a9.836 9.836 0 01-.283.574 12.642 12.642 0 01-.726 1.2c-.067.1-.143.215-.217.316-.062.084-.257.439-.019.036a4.641 4.641 0 01-.448.543 13.435 13.435 0 01-1.49 1.48 1.751 1.751 0 01-.3.241c.174-.089.217-.166.019-.014a13.157 13.157 0 01-2.464 1.442 1.838 1.838 0 001.843 3.181z" fill="#f7f4fc"/><path data-name="Контур 27426" d="M768.675 304.841c-1.078-.256-2.147-.516-3.2-.868-.229-.08-.467-.164-.7-.251-.129-.051-.257-.1-.379-.152.238.1.026.014-.1-.041a11.076 11.076 0 01-1.409-.789c-.1-.063-.2-.137-.3-.207-.162-.108-.088-.068.029.029-.19-.159-.374-.316-.55-.48s-.34-.35-.5-.531c-.033-.041-.29-.357-.136-.15s-.107-.166-.107-.166a5.522 5.522 0 01-.367-.617c-.048-.082-.088-.171-.129-.251-.209-.42.109.35-.033-.092a6.42 6.42 0 01-.183-.61 1.652 1.652 0 01-.069-.35 2.006 2.006 0 01.029.2l-.021-.287a1.819 1.819 0 10-3.638 0 8.706 8.706 0 003.774 6.441 19.01 19.01 0 007 2.725 1.848 1.848 0 002.236-1.29 1.872 1.872 0 00-1.247-2.263z" fill="#f7f4fc"/><path data-name="Контур 27427" d="M846.01 278.029c-.264-2.853-3.159-5.529-6.118-4.881-1.626.354-3.652 1.471-4.659.222 3.212-3.034 6.49-6.168 8.3-10.1s1.828-8.9-1.15-12.1-9.33-3.347-11.639.342a43.624 43.624 0 00-.074-21.842c-.943-3.559-2.438-7.145-5.311-9.6s-7.416-3.453-10.735-1.526a10.833 10.833 0 00-4.081 4.9c-3.109 6.513-2.993 13.936-2.5 21.049-2.281-2.874-7.559-2.038-9.792.9s-2.036 6.971-.857 10.4 3.2 6.535 4.423 9.949c-1.855-1.869-5.478-.967-7 1.174s-1.443 4.943-.981 7.478a30.4 30.4 0 009.078 16.509c-2.216-2.03-6.226-1.145-8.142 1.153s-2.183 5.476-1.857 8.377c1.262 11.261 9.314 22.026 28.328 21.044 7.411-.849 14.665-4.8 18.075-11.095s2.1-14.876-3.821-19.127c2.207-1.977 4.809-3.55 6.942-5.595s3.829-4.776 3.571-7.631z" fill="#d7e4f6"/><path data-name="Контур 27428" d="M819.158 339.629V252.42a1.818 1.818 0 00-3.635 0v87.214a1.818 1.818 0 003.635-.005z" fill="#f7f4fc"/><path data-name="Контур 27429" d="M818.717 286.299a21.752 21.752 0 0013.737-15.083 1.877 1.877 0 00-1.267-2.267 1.844 1.844 0 00-2.243 1.288 17.953 17.953 0 01-4.064 7.659 20.714 20.714 0 01-1.578 1.565 14.059 14.059 0 01-1.693 1.309 17.282 17.282 0 01-3.862 1.975 1.884 1.884 0 00-1.267 2.264 1.83 1.83 0 002.237 1.29z" fill="#f7f4fc"/><path data-name="Контур 27430" d="M815.942 300.717c-2.493-.379-4.309-2.416-5.521-4.587a12.939 12.939 0 01-1.586-7.381 1.843 1.843 0 00-1.814-1.84 1.867 1.867 0 00-1.824 1.84 16.6 16.6 0 002.188 9.436c1.614 2.79 4.288 5.59 7.587 6.084a1.841 1.841 0 00.969-3.552z" fill="#f7f4fc"/><path data-name="Контур 27431" d="M818.508 263.892a25.878 25.878 0 01-2.316-2.153c-.371-.393-.738-.8-1.083-1.215-.162-.2-.324-.4-.488-.6-.067-.089-.231-.311-.081-.1-.081-.116-.169-.231-.25-.345a24.772 24.772 0 01-1.7-2.684c-.25-.451-.483-.912-.7-1.377-.124-.26-.238-.521-.359-.784a4.202 4.202 0 01-.014-.034c-.067-.159-.129-.321-.19-.48a1.821 1.821 0 10-3.507.981 27.659 27.659 0 008.121 11.4 1.848 1.848 0 002.574 0 1.878 1.878 0 00-.007-2.609z" fill="#f7f4fc"/></g><path data-name="Контур 27432" d="M548.065 495.734c-2.621-2.838-4.309-11.2-2.006-14.3a8.65 8.65 0 0110.394-2.514c-.733-2.966-.143-6.44 2.178-8.426s6.483-1.685 7.933 1a9.162 9.162 0 013.376-9.225c2.852-1.978 7.276-1.531 9.3 1.288.055-4.078.231-8.5 2.826-11.647s8.544-3.6 10.22.114a10.09 10.09 0 0118.713.4 14.785 14.785 0 0125.226 6.416c.264 1.05.624 2.35 1.69 2.533a3.378 3.378 0 001.5-.276c3.1-.936 6.5.933 8.34 3.595s2.493 5.957 3.088 9.14c3.616-3.164 10.4-.374 10.749 4.409 2.343-1.631 5.361-3.326 7.856-1.938 1.093.6 1.814 1.688 2.852 2.357s2.728.7 3.228-.44a19.514 19.514 0 012.909 8.1 9.587 9.587 0 0110.223-.743c3.145 1.752 5.426 6.555 5.081 10.152z" transform="translate(600.781 -153.2)" fill-rule="evenodd" fill="url(#c)"/><path data-name="Контур 27433" d="M707.228 498.383a11.246 11.246 0 01-2.041-14.133 8.31 8.31 0 0110.39-2.679c-.733-3.152-.138-6.846 2.19-8.948 2.312-2.108 6.483-1.8 7.923 1.057-.678-3.613.526-7.709 3.381-9.8a6.671 6.671 0 019.294 1.369c.055-4.334.236-9.027 2.826-12.369s8.547-3.828 10.223.116a9.881 9.881 0 0118.715.425 14.508 14.508 0 0114.518-4.592 15.59 15.59 0 0110.709 11.41c.264 1.113.624 2.5 1.676 2.692a3.214 3.214 0 001.5-.288c3.1-1 6.5.987 8.354 3.815s2.5 6.327 3.09 9.71c3.6-3.362 10.4-.395 10.735 4.688 2.355-1.736 5.376-3.537 7.868-2.062 1.081.643 1.814 1.794 2.854 2.507s2.728.741 3.228-.468a21.588 21.588 0 012.907 8.61 9.1 9.1 0 0110.211-.792 10.356 10.356 0 014.766 9.632z" transform="translate(820.496 -155.398)" fill-rule="evenodd" fill="url(#c)"/><g data-name="Сгруппировать 2376"><g data-name="Сгруппировать 2375" fill-rule="evenodd"><path data-name="Контур 27434" d="M1269.814 308.777c-.6-4.852-4.7-9.6-9.559-9.18a19.59 19.59 0 006.471-14.151c.04-3.176-.874-6.6-3.354-8.583a6.056 6.056 0 00-7.492 0 18.422 18.422 0 00-8.216-28.243 12.506 12.506 0 00-9.711-.04c-3.171 1.521-5.235 4.735-6.414 8.054-2.231 6.264-1.926 13.111-1.564 19.748a15.686 15.686 0 00-11 1.993 5.717 5.717 0 00-2.757 2.981 8.747 8.747 0 00-.264 2.695 52.2 52.2 0 001.262 11.259 24.065 24.065 0 001.662 4.871c.4.826 1.857 4.09 2.855 4.24-3.131-.481-6.152 1.821-7.483 4.681-1.314 2.864-1.314 6.152-1.136 9.3.278 5.161 1.164 10.763 4.959 14.287 4.088 3.807 9.975 4.119 15.225 4.781a39.368 39.368 0 0017.594-1.312 25.822 25.822 0 0015.542-13.482c2.049-4.288 3.99-9.042 3.38-13.899z" fill="#d7e4f6"/><path data-name="Контур 27435" d="M1243.453 340.233v-41.172c0-2.966-4.612-2.974-4.612 0v41.173c0 2.961 4.612 2.966 4.612-.001z" fill="#f7f4fc"/><path data-name="Контур 27436" d="M1243.246 325.934a24.157 24.157 0 0013.451-7.18 2.308 2.308 0 10-3.269-3.259c-.388.414-.79.814-1.219 1.2-.221.2-.445.4-.693.6-.1.091-.2.169-.3.257-.152.124-.2.143-.014.007a22.536 22.536 0 01-2.964 1.9c-.514.269-1.026.507-1.552.743.207-.086.193-.071 0 0-.124.05-.25.1-.388.15-.276.109-.567.212-.845.3a22.147 22.147 0 01-3.421.84 2.328 2.328 0 00-1.621 2.833 2.393 2.393 0 002.835 1.609z" fill="#f7f4fc"/><path data-name="Контур 27437" d="M1239.989 313.707c-.012.007-.581.122-.221.055s-.138.007-.221.012c-.29.014-.581 0-.871-.012-.4-.029.1-.007.083.012l-.431-.088a6.9 6.9 0 01-.845-.25c-.164-.062-.471-.048-.04.007a1.169 1.169 0 01-.319-.157 7.6 7.6 0 01-.79-.431 5.421 5.421 0 01-.747-.509c.221.2.167.121-.026-.033-.112-.1-.224-.2-.333-.3-.443-.419-.831-.878-1.233-1.333-.221-.264.3.426-.041-.062-.1-.129-.2-.257-.29-.393a41.505 41.505 0 01-.471-.709c-.693-1.083-1.3-2.216-1.912-3.345a2.315 2.315 0 00-3.145-.829 2.352 2.352 0 00-.831 3.15c1.371 2.555 2.826 5.242 5.069 7.133a10.274 10.274 0 008.84 2.526 2.315 2.315 0 001.607-2.831 2.353 2.353 0 00-2.832-1.613z" fill="#f7f4fc"/></g></g><path data-name="Контур 27438" d="M1590.959 304.453c-.6-4.852-4.683-9.6-9.559-9.18a19.534 19.534 0 006.469-14.151c.043-3.176-.871-6.6-3.352-8.58-2.133-1.7-5.583-1.764-7.48 0a18.414 18.414 0 00-8.228-28.243 12.471 12.471 0 00-9.7-.041c-3.185 1.521-5.238 4.735-6.428 8.054-2.231 6.264-1.912 13.111-1.566 19.751a15.649 15.649 0 00-10.985 1.99 5.675 5.675 0 00-2.769 2.981 8.743 8.743 0 00-.264 2.7 52.947 52.947 0 001.262 11.259 23.947 23.947 0 001.676 4.871c.386.826 1.843 4.085 2.838 4.24-3.116-.481-6.135 1.824-7.466 4.681s-1.328 6.145-1.15 9.3c.29 5.161 1.178 10.763 4.959 14.285 4.088 3.809 9.975 4.121 15.225 4.785a39.382 39.382 0 0017.608-1.317 25.823 25.823 0 0015.527-13.48c2.067-4.294 3.993-9.048 3.383-13.905z" fill="#d7e4f6" fill-rule="evenodd"/><path data-name="Контур 27439" d="M1564.597 335.91v-41.17c0-2.969-4.614-2.976-4.614 0v41.17c0 2.962 4.614 2.969 4.614 0z" fill="#f7f4fc" fill-rule="evenodd"/><path data-name="Контур 27440" d="M1564.404 321.611a24.165 24.165 0 0013.437-7.18 2.304 2.304 0 10-3.257-3.259c-.4.414-.8.814-1.219 1.2-.236.2-.457.4-.693.6-.109.088-.207.169-.319.257-.152.121-.179.143 0 .007a23.465 23.465 0 01-2.976 1.9c-.514.271-1.026.507-1.538.745.193-.1.179-.074-.014 0-.126.048-.25.1-.374.15-.279.107-.569.21-.859.3a22.3 22.3 0 01-3.423.833 2.3 2.3 0 00-1.607 2.828 2.377 2.377 0 002.842 1.619z" fill="#f7f4fc" fill-rule="evenodd"/><path data-name="Контур 27441" d="M1561.132 309.383c-.012 0-.581.124-.221.055s-.138.007-.207.012a7.922 7.922 0 01-.886-.019c-.4-.022.1 0 .1.019l-.429-.088a6.988 6.988 0 01-.859-.25c-.164-.062-.457-.048-.026.007a1.072 1.072 0 01-.333-.155 9.627 9.627 0 01-.791-.433 5.289 5.289 0 01-.733-.509c.221.2.152.121-.028-.041a2.894 2.894 0 01-.333-.3 14.326 14.326 0 01-1.231-1.328c-.236-.264.3.426-.057-.059-.1-.131-.179-.26-.276-.4a16.81 16.81 0 01-.486-.71c-.693-1.086-1.3-2.216-1.9-3.347a2.303 2.303 0 10-3.976 2.326c1.359 2.552 2.812 5.24 5.057 7.13a10.275 10.275 0 008.84 2.528 2.323 2.323 0 001.619-2.833 2.366 2.366 0 00-2.844-1.605z" fill="#f7f4fc" fill-rule="evenodd"/><g data-name="Сгруппировать 2359"><path data-name="Прямоугольник 1136" transform="translate(280.298 325.759)" fill="url(#b)" d="M0 0h1.824v12.124H0z"/><path data-name="Контур 27442" d="M142.342 467.471l-1.429-.952 3.264-4.911 1.427.952z" transform="translate(7.054 -130.984)" fill-rule="evenodd" fill="url(#d)"/><path data-name="Прямоугольник 1137" transform="rotate(-26.406 782.303 -159.132)" fill="url(#e)" d="M0 0h1.722v5.898H0z"/><path data-name="Контур 27443" d="M178.383 466.564l-40.974-.732a7.17 7.17 0 01-7.039-7.288l55.3.989a7.157 7.157 0 01-7.287 7.031z" transform="translate(-4.46 -134.329)" fill-rule="evenodd" fill="url(#f)"/><path data-name="Контур 27444" d="M129.768 469.2l-33.79 18.95-25.8-68.807 17.981 3.157z" transform="translate(-70.18 -177.128)" fill-rule="evenodd" fill="url(#g)"/><path data-name="Контур 27445" d="M369.216 478.644l-17.35-.136-43.16-.341-55.661-.439-54.869-.431c-9.271-.075-18.369.688-27.632.613-5.625-.042-11.413-.372-17.045-.441a62.866 62.866 0 01-16.018-2.627c-12.7-3.416-25.107-7.815-37.6-11.8q-13.515-4.261-27.023-8.522l.054-7.541 57.316-3.778q15.661.122 31.33.249l71.646.565 78.407.617c17.407.136 34.82.3 52.222.366 12.25.048 26.582 9.307 30.981 20.951 1.284 3.4-8.391 7.771-10.924 8.9a51.749 51.749 0 01-14.674 3.795z" transform="translate(-67.256 -151.09)" fill-rule="evenodd" fill="url(#h)"/><path data-name="Контур 27446" d="M117.095 452.511l-28.171 2-16.99-9.6 6.719-1.565z" transform="translate(-68.265 -150.928)" fill-rule="evenodd" fill="url(#i)"/><path data-name="Контур 27447" d="M176.9 459.876a48.193 48.193 0 00-7.583-.734 34.174 34.174 0 00-9.167 1.077 29.9 29.9 0 00-.305 11.947 33.818 33.818 0 009.154 1.5 48.652 48.652 0 007.617-.408c.743-.1 1.462-.216 2.142-.341l.274-12.6a34.733 34.733 0 00-2.132-.441z" transform="translate(27.261 -133.684)" fill-rule="evenodd" fill="url(#j)"/><path data-name="Контур 27448" d="M165.47 459.656c-6.249 1.6-10.552 4.527-10.583 5.761-.021 1.2 4.132 4.313 10.275 6.19a29.9 29.9 0 01.308-11.951z" transform="translate(22.312 -133.115)" fill-rule="evenodd" fill="url(#k)"/><path data-name="Контур 27449" d="M167.719 472.868l.292-13.377 2.131.43-.275 12.607z" transform="translate(36.324 -133.295)" fill-rule="evenodd" fill="url(#l)"/><path data-name="Контур 27450" d="M215.705 461.57l-13.072-2.664-79.515-6.755 14.8 7.286 35.362 5.935 44.186-1.572z" transform="translate(-12.376 -141.31)" fill-rule="evenodd" fill="url(#m)"/><path data-name="Контур 27451" d="M150.585 467.712a3.72 3.72 0 11-2.906-4.387 3.727 3.727 0 012.906 4.387z" transform="translate(9.573 -129.191)" fill-rule="evenodd" fill="url(#n)"/><path data-name="Контур 27452" d="M148.534 466.728a2.356 2.356 0 11-1.839-2.778 2.355 2.355 0 011.839 2.778z" transform="translate(10.284 -128.478)" fill-rule="evenodd" fill="url(#o)"/><path data-name="Контур 27453" d="M210.391 467.779a3.72 3.72 0 11-2.906-4.389 3.721 3.721 0 012.906 4.389z" transform="translate(74.874 -129.12)" fill-rule="evenodd" fill="url(#p)"/><path data-name="Контур 27454" d="M208.337 466.792a2.353 2.353 0 11-1.839-2.776 2.354 2.354 0 011.839 2.776z" transform="translate(75.587 -128.406)" fill-rule="evenodd" fill="url(#q)"/><path data-name="Контур 27455" d="M146.378 467.846a3.72 3.72 0 11-2.9-4.389 3.719 3.719 0 012.9 4.389z" transform="translate(4.978 -129.047)" fill-rule="evenodd" fill="url(#r)"/><path data-name="Контур 27456" d="M144.323 466.859a2.353 2.353 0 11-1.833-2.776 2.349 2.349 0 011.833 2.776z" transform="translate(5.692 -128.334)" fill-rule="evenodd" fill="url(#s)"/><path data-name="Контур 27457" d="M301.848 302.85l-.885 4.326a22.474 22.474 0 005.18.5l-.41-4.539a55.797 55.797 0 01-3.885-.287z" fill="#fff" fill-rule="evenodd"/><path data-name="Контур 27458" d="M318.426 305.675l-3.937-3.132a11.178 11.178 0 01-1.772.314l1.414 4.37a65.735 65.735 0 004.044-.565.556.556 0 00.251-.987z" fill="#fff" fill-rule="evenodd"/><path data-name="Контур 27459" d="M307.075 303.09l.41 4.539a50.378 50.378 0 005.8-.312l-1.41-4.372a31.8 31.8 0 01-4.8.145z" fill="#fff" fill-rule="evenodd"/><path data-name="Контур 27460" d="M257.949 307.1a1.575 1.575 0 01-1.575-1.569v-1.374a1.571 1.571 0 013.142 0v1.372a1.567 1.567 0 01-1.567 1.571z" fill="#fff" fill-rule="evenodd"/><path data-name="Контур 27461" d="M249.596 307.107a1.574 1.574 0 01-1.575-1.569v-1.374a1.57 1.57 0 113.14 0v1.374a1.568 1.568 0 01-1.565 1.569z" fill="#fff" fill-rule="evenodd"/><path data-name="Контур 27462" d="M241.245 307.113a1.574 1.574 0 01-1.575-1.569v-1.372a1.57 1.57 0 013.14 0v1.374a1.565 1.565 0 01-1.565 1.567z" fill="#fff" fill-rule="evenodd"/><path data-name="Контур 27463" d="M232.892 307.119a1.56 1.56 0 01-1.567-1.569v-1.37a1.567 1.567 0 113.134 0v1.374a1.566 1.566 0 01-1.567 1.565z" fill="#fff" fill-rule="evenodd"/><path data-name="Контур 27464" d="M224.541 307.126a1.564 1.564 0 01-1.569-1.567v-1.372a1.567 1.567 0 113.134 0v1.374a1.565 1.565 0 01-1.565 1.565z" fill="#fff" fill-rule="evenodd"/><path data-name="Контур 27465" d="M216.186 307.132a1.561 1.561 0 01-1.567-1.567v-1.372a1.566 1.566 0 113.132 0v1.374a1.566 1.566 0 01-1.565 1.565z" fill="#fff" fill-rule="evenodd"/><path data-name="Контур 27466" d="M207.835 307.14a1.566 1.566 0 01-1.569-1.567v-1.37a1.567 1.567 0 113.134 0v1.372a1.569 1.569 0 01-1.565 1.565z" fill="#fff" fill-rule="evenodd"/><path data-name="Контур 27467" d="M199.482 307.149a1.566 1.566 0 01-1.567-1.569v-1.374a1.567 1.567 0 113.134 0v1.372a1.57 1.57 0 01-1.567 1.571z" fill="#fff" fill-rule="evenodd"/><path data-name="Контур 27468" d="M191.131 307.155a1.568 1.568 0 01-1.569-1.569v-1.374a1.571 1.571 0 013.142 0l-.006 1.374a1.569 1.569 0 01-1.567 1.569z" fill="#fff" fill-rule="evenodd"/><path data-name="Контур 27469" d="M182.779 307.161a1.568 1.568 0 01-1.569-1.569v-1.372a1.571 1.571 0 013.142 0v1.376a1.579 1.579 0 01-1.573 1.565z" fill="#fff" fill-rule="evenodd"/><path data-name="Контур 27470" d="M174.426 307.168a1.566 1.566 0 01-1.567-1.569v-1.372a1.571 1.571 0 013.142 0v1.374a1.574 1.574 0 01-1.575 1.567z" fill="#fff" fill-rule="evenodd"/><path data-name="Контур 27471" d="M166.075 307.174a1.564 1.564 0 01-1.569-1.567v-1.374a1.571 1.571 0 013.142 0v1.374a1.574 1.574 0 01-1.573 1.567z" fill="#fff" fill-rule="evenodd"/><path data-name="Контур 27472" d="M157.722 307.18a1.562 1.562 0 01-1.567-1.567v-1.374a1.57 1.57 0 013.14 0v1.37a1.572 1.572 0 01-1.573 1.571z" fill="#fff" fill-rule="evenodd"/><path data-name="Контур 27473" d="M149.367 307.188a1.571 1.571 0 01-1.567-1.567v-1.374a1.571 1.571 0 013.142 0v1.372a1.572 1.572 0 01-1.575 1.569z" fill="#fff" fill-rule="evenodd"/><path data-name="Контур 27474" d="M141.024 307.195a1.573 1.573 0 01-1.575-1.567v-1.374a1.571 1.571 0 013.142 0v1.374a1.573 1.573 0 01-1.567 1.567z" fill="#fff" fill-rule="evenodd"/><path data-name="Контур 27475" d="M132.673 307.201a1.569 1.569 0 01-1.575-1.567v-1.374a1.57 1.57 0 113.14 0v1.374a1.565 1.565 0 01-1.565 1.567z" fill="#fff" fill-rule="evenodd"/><path data-name="Контур 27476" d="M124.32 307.209a1.572 1.572 0 01-1.575-1.569v-1.372a1.571 1.571 0 013.142 0v1.371a1.565 1.565 0 01-1.567 1.57z" fill="#fff" fill-rule="evenodd"/><path data-name="Контур 27477" d="M115.967 307.216a1.571 1.571 0 01-1.575-1.569v-1.372a1.571 1.571 0 013.142 0v1.372a1.568 1.568 0 01-1.567 1.569z" fill="#fff" fill-rule="evenodd"/><path data-name="Контур 27478" d="M107.616 307.224a1.575 1.575 0 01-1.577-1.569v-1.374a1.571 1.571 0 013.142 0v1.372a1.569 1.569 0 01-1.565 1.571z" fill="#fff" fill-rule="evenodd"/></g></g></svg>